<?xml version="1.0" encoding="utf-8"?><!DOCTYPE svg PUBLIC "-//W3C//DTD SVG 1.1//EN" "http://www.w3.org/Graphics/SVG/1.1/DTD/svg11.dtd"> <svg width="512" height="512" viewBox="0 0 512 512" xmlns="http://www.w3.org/2000/svg" xmlns:xlink="http://www.w3.org/1999/xlink" fill="#000000"><path d="M33.8392205,163.264373 C15.2109796,163.264373 0,177.176497 0,194.171744 L0,317.801226 C0,334.834537 15.2109796,348.708597 33.8392205,348.708597 C52.4466243,348.708597 67.6784409,334.834537 67.6784409,317.801226 L67.6784409,194.171744 C67.6784409,177.157465 52.4466243,163.264373 33.8392205,163.264373 L33.8392205,163.264373 Z M312.762746,45.91533 L340.267531,7.18595866 C341.809466,5.03538423 341.142683,2.16160779 338.808944,0.753267013 C336.454367,-0.655073762 333.266313,-0.0270299027 331.724378,2.12354452 L303.240256,42.2041617 C283.861884,35.3527742 262.274796,31.5274161 239.5,31.5274161 C216.704367,31.5274161 195.117279,35.3527742 175.780581,42.2041617 L147.275622,2.12354452 C145.754524,-0.0270299027 142.587306,-0.63604213 140.23273,0.753267013 C137.878154,2.16160779 137.211371,5.03538423 138.732469,7.18595866 L166.258091,45.91533 C120.7085,65.1182468 89.703106,101.639949 88.8071168,143.699856 L390.192883,143.699856 C389.296894,101.639949 358.312337,65.1182468 312.762746,45.91533 L312.762746,45.91533 Z M174.863755,104.951453 C165.299591,104.951453 157.527406,97.852654 157.527406,89.1171348 C157.527406,80.3816157 165.299591,73.2828169 174.863755,73.2828169 C184.448756,73.2828169 192.200104,80.3816157 192.200104,89.1171348 C192.200104,97.852654 184.448756,104.951453 174.863755,104.951453 L174.863755,104.951453 Z M304.136245,104.951453 C294.572081,104.951453 286.799896,97.852654 286.799896,89.1171348 C286.799896,80.3816157 294.572081,73.2828169 304.136245,73.2828169 C313.700409,73.2828169 321.472594,80.3816157 321.472594,89.1171348 C321.472594,97.852654 313.700409,104.951453 304.136245,104.951453 L304.136245,104.951453 Z M445.16078,163.264373 C426.532539,163.264373 411.321559,177.176497 411.321559,194.171744 L411.321559,317.801226 C411.321559,334.834537 426.532539,348.708597 445.16078,348.708597 C463.78902,348.708597 479,334.834537 479,317.801226 L479,194.171744 C479,177.157465 463.78902,163.264373 445.16078,163.264373 L445.16078,163.264373 Z M88.5570733,387.418936 C88.5570733,401.178806 100.871716,412.388438 115.936837,412.388438 L144.337611,412.388438 L144.337611,481.092629 C144.337611,498.144972 159.569428,512 178.197668,512 C196.805072,512 212.036889,498.12594 212.036889,481.092629 L212.036889,412.369406 L266.963111,412.369406 L266.963111,481.073598 C266.963111,498.12594 282.153254,511.980968 300.823169,511.980968 C319.451409,511.980968 334.641552,498.106909 334.641552,481.073598 L334.641552,412.369406 L363.042326,412.369406 C378.107447,412.369406 390.380416,401.121711 390.380416,387.399905 L390.380416,162.198602 L88.5570733,162.198602 L88.5570733,387.418936 L88.5570733,387.418936 Z M88.5570733,387.418936" ></path></svg>
