<?xml version="1.0" encoding="UTF-8" standalone="no"?>
<svg width="512px" height="512px" viewBox="0 0 512 512" version="1.1" xmlns="http://www.w3.org/2000/svg" xmlns:xlink="http://www.w3.org/1999/xlink" xmlns:sketch="http://www.bohemiancoding.com/sketch/ns">
    <title>Slice 1</title>
    <description>Created with Sketch (http://www.bohemiancoding.com/sketch)</description>
    <defs></defs>
    <g id="Page 1" stroke="none" stroke-width="1" fill="none" fill-rule="evenodd">
        <path d="M422.898848,375.148619 C422.897519,375.147291 422.896191,375.145962 422.894863,375.145298 L319.75127,271.999679 L422.894863,168.854059 C422.896191,168.852731 422.897519,168.852067 422.898848,168.850739 C424.009161,167.739761 424.812013,166.442181 425.326662,165.060266 C426.736468,161.283074 425.932287,156.865062 422.894863,153.827636 L374.170569,105.103326 C371.133145,102.066565 366.716462,101.263048 362.938607,102.672854 C361.557356,103.187503 360.259113,103.990356 359.147472,105.100005 C359.147472,105.101334 359.146144,105.101998 359.144816,105.103326 L255.999895,208.24961 L152.854974,105.10399 C152.853646,105.102662 152.852982,105.101998 152.851653,105.100669 C151.740676,103.99102 150.443097,103.188167 149.061846,102.673518 C145.283328,101.263048 140.866645,102.067229 137.82922,105.10399 L89.1042621,153.828965 C86.0668379,156.86639 85.2633217,161.283738 86.6731274,165.06093 C87.1884403,166.442181 87.9912925,167.741089 89.1009418,168.851403 C89.1022699,168.852067 89.1029339,168.853395 89.1042621,168.854723 L192.249847,271.999679 L89.1042621,375.145962 C89.103598,375.147291 89.1022699,375.147955 89.1016058,375.149283 C87.9919566,376.26026 87.1891044,377.55784 86.6731274,378.939092 C85.2626576,382.716283 86.0668379,387.134296 89.1042621,390.171721 L137.82922,438.896032 C140.867309,441.933457 145.283992,442.736973 149.061846,441.327167 C150.443097,440.811854 151.74134,440.009002 152.852318,438.899352 C152.852982,438.898024 152.85431,438.89736 152.855638,438.896032 L256.000559,335.750412 L359.14548,438.896032 C359.146808,438.896696 359.148136,438.898024 359.149464,438.898688 C360.261105,440.009002 361.55802,440.811854 362.939271,441.327167 C366.717126,442.736973 371.135137,441.933457 374.171233,438.896032 L422.895527,390.171057 C425.932951,387.133632 426.737132,382.715619 425.327326,378.938427 C424.812013,377.557176 424.009161,376.259596 422.898848,375.148619 L422.898848,375.148619 Z M422.898848,375.148619" id="Shape" fill="#000000"></path>
    </g>
</svg>