<?xml version="1.0" encoding="UTF-8" standalone="no"?>
<svg width="512px" height="512px" viewBox="0 0 512 512" version="1.1" xmlns="http://www.w3.org/2000/svg" xmlns:xlink="http://www.w3.org/1999/xlink" xmlns:sketch="http://www.bohemiancoding.com/sketch/ns">
    <title>Slice 1</title>
    <description>Created with Sketch (http://www.bohemiancoding.com/sketch)</description>
    <defs></defs>
    <g id="Page 1" stroke="none" stroke-width="1" fill="none" fill-rule="evenodd">
        <path d="M426.672,0 L85.342,0 C38.406,0 0,38.407 0,85.344 L0,426.657 C0,473.626 38.406,512 85.342,512 L426.672,511.999 C473.61,511.999 512,473.626 512,426.655 L512,85.344 C512,38.407 473.609,0 426.672,0 L426.672,0 Z M435.296,288.5 L352,288.5 L352,512 L256,512 L256,288.5 L209.737,288.5 L209.737,215.381576 L256,215.381576 L256,167.89481 C256,103.368165 283.896,65 359.935,65 L447.557,65 L447.557,144.108025 L375.992,144.108025 C354.751,144.073103 352.116,155.159301 352.116,175.793141 L352,215.381576 L448,215.381576 L435.296,288.5 L435.296,288.5 Z M435.296,288.5" id="Shape" fill="#000000"></path>
    </g>
</svg>