<?xml version="1.0" encoding="UTF-8" standalone="no"?>
<svg width="512px" height="512px" viewBox="0 0 512 512" version="1.1" xmlns="http://www.w3.org/2000/svg" xmlns:xlink="http://www.w3.org/1999/xlink" xmlns:sketch="http://www.bohemiancoding.com/sketch/ns">
    <title>spinner</title>
    <description>Created with Sketch (http://www.bohemiancoding.com/sketch)</description>
    <defs></defs>
    <g id="Page 1" stroke="none" stroke-width="1" fill="none" fill-rule="evenodd">
        <path d="M502.057804,258.056243 C501.418804,224.625243 494.165804,191.298243 480.769804,160.825243 C467.417804,130.325243 448.038804,102.696243 424.248804,79.8652429 C400.472804,57.0172429 372.276804,38.9552429 341.756804,27.0392429 C311.254804,15.0772429 278.458804,9.36324287 246.057804,10.0562429 C213.652804,10.6972429 181.391804,17.7432429 151.890804,30.7342429 C122.366804,43.6822429 95.6198041,62.4692429 73.5238041,85.5222429 C51.4118041,108.563243 33.9438041,135.876243 22.4308041,165.421243 C10.8738041,194.952243 5.3668041,226.681243 6.0578041,258.056243 C6.7008041,289.436243 13.5398041,320.630243 26.1248041,349.159243 C38.6688041,377.709243 56.8628041,403.573243 79.1798041,424.933243 C101.484804,446.310243 127.915804,463.185243 156.486804,474.293243 C185.045804,485.445243 215.709804,490.744243 246.057804,490.056243 C276.411804,489.411243 306.538804,482.779243 334.095804,470.599243 C361.670804,458.458243 386.653804,440.859243 407.278804,419.277243 C427.919804,397.707243 444.200804,372.159243 454.905804,344.562243 C461.422804,327.833243 465.845804,310.362243 468.176804,292.663243 C468.799804,292.699243 469.425804,292.723243 470.057804,292.723243 C487.730804,292.723243 502.057804,278.397243 502.057804,260.723243 C502.057804,259.825243 502.010804,258.937243 501.938804,258.057243 L502.057804,258.057243 L502.057804,258.056243 Z M451.210804,343.030243 C439.474804,369.631243 422.468804,393.730243 401.621804,413.620243 C380.786804,433.525243 356.121804,449.213243 329.499804,459.515243 C302.885804,469.854243 274.354804,474.741243 246.057804,474.056243 C217.755804,473.407243 189.759804,467.188243 164.147804,455.819243 C138.522804,444.486243 115.305804,428.074243 96.1508041,407.963243 C76.9818041,387.864243 61.8868041,364.081243 51.9898041,338.434243 C42.0548041,312.792243 37.3758041,285.327243 38.0578041,258.056243 C38.7088041,230.780243 44.7218041,203.850243 55.6848041,179.211243 C66.6138041,154.561243 82.4338041,132.226243 101.807804,113.806243 C121.172804,95.3722429 144.072804,80.8712429 168.744804,71.3782429 C193.413804,61.8482429 219.812804,57.3752429 246.057804,58.0562429 C272.307804,58.7092429 298.171804,64.5152429 321.838804,75.0732429 C345.514804,85.5982429 366.966804,100.824243 384.650804,119.464243 C402.348804,138.093243 416.255804,160.111243 425.345804,183.808243 C434.469804,207.504243 438.736804,232.837243 438.057804,258.056243 L438.176804,258.056243 C438.104804,258.936243 438.057804,259.824243 438.057804,260.722243 C438.057804,277.228243 450.553804,290.809243 466.600804,292.534243 C463.488804,309.945243 458.335804,326.943243 451.210804,343.030243 L451.210804,343.030243 Z M451.210804,343.030243" id="Shape" fill="#000000"></path>
    </g>
</svg>