<?xml version="1.0" encoding="utf-8"?><!DOCTYPE svg PUBLIC "-//W3C//DTD SVG 1.1//EN" "http://www.w3.org/Graphics/SVG/1.1/DTD/svg11.dtd"> <svg width="514.142822265625" height="512" viewBox="0 0 514.142822265625 512" xmlns="http://www.w3.org/2000/svg" xmlns:xlink="http://www.w3.org/1999/xlink" fill="#000000"><g><path d="M 192.857,366.857q 6-9.714 3.143-19.714t-12.857-14.286q-9.714-4 -20.857-0.286t-17.143,13.143q-6.286,9.714 -3.714,19.571t 12.286,14.429t 21.286,0.714t 17.857-13.571zM 219.714,332.286q 2.286-3.714 1-7.571t-5-5.286q-4-1.429 -8.143,0.143t-6.143,5.286q-4.857,8.857 3.714,12.857q 4,1.429 8.286-0.143t 6.286-5.286zM 269.429,362.857q-12.857,29.143 -45.143,42.857t-64,3.429 q-30.571-9.714 -42.143-36.143t 1.857-53.571q 13.429-26.571 43.286-39.714t 60.143-5.429q 31.714,8.286 45.286,34.143t 0.714,54.429zM 358.571,317.143q-2.571-27.429 -25.429-48.571t-59.571-31.143t-78.429-6q-63.714,6.571 -105.571,40.429t-37.857,75.571q 2.571,27.429 25.429,48.571t 59.571,31.143t 78.429,6q 63.714-6.571 105.571-40.429t 37.857-75.571zM 446.571,318.286 q0,19.429 -10.571,39.857t-31.143,39.143t-48.143,33.571t-64.571,23.714t-77.286,8.857t-78.571-9.571t-68.714-26.571t-49-43.143t-18.571-57q0-32.857 19.857-70t 56.429-73.714q 48.286-48.286 97.571-67.429t 70.429,2q 18.571,18.286 5.714,59.714q-1.143,4 -0.286,5.714t 2.857,2t 4.143-0.143t 3.857-1l 1.714-0.571q 39.714-16.857 70.286-16.857t 43.714,17.429q 12.857,18 0,50.857 q-0.571,3.714 -1.286,5.714t 1.286,3.571t 3.429,2.143t 4.857,1.714q 16.286,5.143 29.429,13.429t 22.857,23.286t 9.714,33.286zM 425.429,140q 12,13.429 15.571,31t-1.857,33.571q-2.286,6.571 -8.429,9.714t-12.714,1.143q-6.571-2.286 -9.714-8.429t-1.143-12.714q 5.714-18 -6.857-31.714t-30.571-10q-6.857,1.429 -12.857-2.286t-7.143-10.571q-1.429-6.857 2.286-12.714t 10.571-7.286q 17.143-3.714 34,1.571t 28.857,18.714z M 477.143,93.429q 24.857,27.429 32.143,63.571t-3.857,69q-2.571,7.714 -9.714,11.429t-14.857,1.143t-11.429-9.714t-1.429-14.857q 8-23.429 2.857-49.143t-22.857-45.143q-17.714-19.714 -42.286-27.286t-49.429-2.429q-8,1.714 -14.857-2.714t-8.571-12.429t 2.714-14.714t 12.429-8.429q 35.143-7.429 69.714,3.286t 59.429,38.429z"></path></g></svg>
