<?xml version="1.0" encoding="utf-8"?><!DOCTYPE svg PUBLIC "-//W3C//DTD SVG 1.1//EN" "http://www.w3.org/Graphics/SVG/1.1/DTD/svg11.dtd"> <svg width="512" height="512" viewBox="0 0 512 512" xmlns="http://www.w3.org/2000/svg" xmlns:xlink="http://www.w3.org/1999/xlink" fill="#000000"><g><path d="M 192,293.333c0,0, 101.972-61.18, 159.383-37.013c 11.901-18.134, 23.624-37.668, 35.101-57.611 C 330.321,184.949, 256,197.333, 256,197.333s 95.106-57.061, 153.333-39.2c 11.675-21.054, 23.027-41.821, 33.978-61.152 C 396.923,93.847, 352,101.333, 352,101.333s 59.574-35.744, 113.289-41.799C 482.188,32.104, 497.874,10.594, 512,0C 231.5,0, 64,320,0,512 l 32,0 l 96-160c0,0, 32,32, 128,0c 22.737-7.579, 45.474-28.626, 67.786-56.967C 267.478,280.756, 192,293.333, 192,293.333z"></path></g></svg>
